<svg id="logo" xmlns="http://www.w3.org/2000/svg" xmlns:xlink="http://www.w3.org/1999/xlink" viewBox="0 0 1000 1000"><defs><style>.cls-1{fill:url(#linear-gradient);}.cls-2{fill:url(#linear-gradient-2);}.cls-3{fill:url(#linear-gradient-3);}.cls-4{fill:url(#linear-gradient-4);}.cls-5{fill:url(#linear-gradient-5);}.cls-6{fill:url(#linear-gradient-6);}</style><linearGradient id="linear-gradient" x1="396.61" y1="811.81" x2="396.61" y2="305.04" gradientUnits="userSpaceOnUse"><stop offset="0" stop-color="#0241db"/><stop offset="1" stop-color="#008aff"/></linearGradient><linearGradient id="linear-gradient-2" x1="608.07" y1="566.13" x2="391.93" y2="191.77" gradientUnits="userSpaceOnUse"><stop offset="0" stop-color="#0163f4"/><stop offset="1" stop-color="#008bf8"/></linearGradient><linearGradient id="linear-gradient-3" x1="579.48" y1="920.52" x2="-14.57" y2="326.47" gradientUnits="userSpaceOnUse"><stop offset="0" stop-color="#39b9f1"/><stop offset="1" stop-color="#bbebfc"/></linearGradient><linearGradient id="linear-gradient-4" x1="155.99" y1="340.74" x2="522.41" y2="-25.68" gradientUnits="userSpaceOnUse"><stop offset="0" stop-color="#dcedfb"/><stop offset="1" stop-color="#67c5ff"/></linearGradient><linearGradient id="linear-gradient-5" x1="477.59" y1="526.26" x2="844.01" y2="159.84" xlink:href="#linear-gradient-4"/><linearGradient id="linear-gradient-6" x1="718.21" y1="1000" x2="718.21" y2="252.25" xlink:href="#linear-gradient"/></defs><g id="group"><polygon id="path5" class="cls-1" points="614.82 566.15 178.4 811.81 178.4 553.37 614.82 305.04 614.82 566.15"/><polygon id="path4" class="cls-2" points="614.82 66.73 178.4 315.06 385.18 691.18 821.6 442.85 614.82 66.73"/><polygon id="path3" class="cls-3" points="385.16 932.49 500 1000 500 500.58 385.18 433.85 385.18 433.85 385.18 433.85 385.18 691.18 178.45 315.09 178.4 315.18 178.4 315.06 63.58 248.33 63.58 745.08 178.4 811.81 178.4 553.37 385.16 932.49"/><polygon id="path2" class="cls-4" points="63.58 248.33 500 0 614.82 66.73 178.4 315.06 63.58 248.33"/><polygon id="path1" class="cls-5" points="821.6 185.52 385.18 433.85 500 500.58 936.42 252.25 821.6 185.52"/><polygon id="path0" class="cls-6" points="500 1000 936.42 751.67 936.42 252.25 500 500.58 500 1000"/></g></svg>
